<?xml version="1.0" standalone="no"?>
<!DOCTYPE svg PUBLIC "-//W3C//DTD SVG 20010904//EN"
 "http://www.w3.org/TR/2001/REC-SVG-20010904/DTD/svg10.dtd">
<svg version="1.0" xmlns="http://www.w3.org/2000/svg"
 width="630.000000pt" height="630.000000pt" viewBox="0 0 630.000000 630.000000"
 preserveAspectRatio="xMidYMid meet">
<metadata>
Created by potrace 1.11, written by Peter Selinger 2001-2013
</metadata>
<g transform="translate(0.000000,630.000000) scale(0.100000,-0.100000)"
fill="#000000" stroke="none">
<path d="M2957 6130 c-201 -51 -332 -263 -322 -520 4 -122 19 -184 73 -303 22
-48 30 -77 25 -98 -8 -39 14 -87 48 -104 36 -19 53 -19 95 1 88 42 51 184 -47
184 -23 0 -67 87 -92 183 -20 75 -16 262 7 333 36 116 124 209 218 234 123 32
187 10 279 -97 24 -28 68 -135 71 -172 3 -35 17 -47 66 -56 29 -5 30 -4 26 32
-14 150 -108 298 -227 359 -55 29 -158 39 -220 24z"/>
<path d="M2925 5725 c-87 -37 -94 -139 -13 -181 39 -20 98 -6 121 30 15 22 22
24 79 20 78 -4 202 -36 260 -65 224 -114 342 -318 272 -470 -31 -67 -94 -125
-153 -143 -56 -16 -171 -13 -228 8 -40 14 -43 14 -77 -12 -19 -15 -34 -31 -33
-36 5 -16 107 -46 177 -52 166 -15 329 65 391 192 47 97 30 246 -39 354 -35
55 -134 160 -150 160 -7 0 -12 4 -12 8 0 24 -245 127 -310 131 -126 7 -166 14
-185 31 -33 31 -67 40 -100 25z"/>
<path d="M2500 5473 c-51 -47 -119 -143 -124 -175 -1 -7 -5 -19 -10 -27 -5 -8
-10 -48 -12 -89 -7 -148 49 -252 167 -312 123 -63 287 -61 436 6 17 8 34 14
38 14 3 0 37 20 74 44 85 55 170 141 218 223 21 34 43 63 50 63 24 0 63 46 68
80 15 100 -112 153 -175 73 -24 -30 -25 -67 -6 -105 14 -26 13 -31 -24 -85
-168 -250 -538 -356 -695 -199 -107 107 -97 267 26 398 l49 52 -13 45 -12 44
-55 -50z"/>
<path d="M2408 4541 c-59 -12 -129 -62 -169 -119 -85 -121 -104 -345 -52 -592
8 -41 16 -81 17 -89 1 -9 -33 -26 -92 -47 -101 -35 -265 -112 -270 -126 -2 -4
-8 -8 -14 -8 -15 0 -95 -65 -142 -114 -123 -131 -122 -311 3 -442 75 -80 232
-177 356 -221 17 -6 39 -15 50 -19 11 -4 22 -8 25 -9 31 -9 90 -28 90 -29 0
-1 -5 -17 -10 -36 -6 -19 -12 -51 -15 -70 -3 -19 -7 -46 -9 -59 -19 -89 -23
-227 -12 -325 7 -60 42 -163 69 -201 145 -209 421 -166 750 118 l88 76 41 -37
c22 -20 50 -46 61 -56 88 -83 306 -206 392 -222 49 -8 131 -10 165 -2 208 45
296 301 230 670 -11 64 -23 123 -25 130 -4 10 22 23 92 47 250 84 417 201 489
341 28 54 32 70 29 130 -6 189 -194 356 -525 466 -47 16 -86 29 -88 30 -2 1 1
19 7 40 46 175 54 401 19 529 -31 113 -96 196 -182 234 -45 19 -170 22 -230 4
-81 -24 -214 -92 -281 -145 -58 -45 -145 -117 -163 -135 -30 -30 -36 -29 -75
8 -117 113 -282 220 -412 266 -48 17 -157 24 -207 14z m157 -133 c45 -11 152
-62 176 -84 8 -8 19 -14 23 -14 8 0 8 0 106 -82 126 -105 118 -90 73 -140 -49
-55 -120 -142 -158 -193 -16 -22 -33 -41 -37 -43 -4 -2 -8 -10 -8 -18 0 -8 -8
-14 -17 -15 -10 0 -25 -2 -33 -3 -8 -2 -37 -6 -65 -10 -115 -14 -141 -17 -155
-22 -20 -7 -89 -17 -119 -18 -15 -1 -25 5 -26 16 -2 9 -8 40 -15 70 -24 112
-31 274 -17 370 14 90 54 157 110 182 58 26 72 27 162 4z m1191 -12 c27 -18
66 -83 84 -139 26 -84 16 -304 -21 -453 -6 -24 -16 -44 -21 -44 -5 0 -41 6
-81 14 -96 19 -213 36 -262 40 -37 2 -45 8 -93 72 -74 96 -174 217 -191 230
-13 10 -10 16 15 41 16 15 51 46 79 68 27 22 56 46 64 53 42 40 172 108 251
132 61 18 135 12 176 -14z m-538 -533 l21 -30 -169 0 c-94 0 -170 2 -170 3 0
5 102 128 138 166 l35 37 62 -73 c34 -40 71 -86 83 -103z m107 -167 c31 -10
146 -193 245 -387 l43 -85 -58 -110 c-85 -160 -195 -340 -218 -355 -23 -16
-511 -16 -535 0 -22 15 -155 234 -231 380 l-43 83 18 42 c25 56 156 286 211
369 44 66 47 68 84 66 21 -2 41 -1 44 2 8 8 416 4 440 -5z m-698 -24 c-11 -21
-142 -251 -155 -271 -14 -24 -15 -23 -46 60 -43 115 -60 168 -55 173 4 5 196
40 237 44 13 1 21 -1 19 -6z m993 -9 c19 -3 42 -7 50 -9 8 -1 34 -6 58 -9 23
-3 42 -10 42 -15 0 -11 -76 -226 -85 -241 -4 -5 -33 36 -64 93 -32 57 -70 122
-84 145 -15 24 -27 45 -27 48 0 5 44 0 110 -12z m-1346 -151 c26 -80 69 -187
101 -254 12 -24 7 -40 -51 -185 -35 -87 -66 -173 -70 -190 -3 -18 -9 -33 -13
-33 -35 0 -317 119 -331 140 -3 4 -15 10 -27 14 -32 10 -133 113 -150 153 -61
148 82 294 404 412 43 16 85 29 93 30 10 0 24 -27 44 -87z m1712 62 c44 -14
120 -46 170 -71 347 -170 351 -379 10 -550 -72 -36 -250 -104 -264 -101 -4 1
-21 43 -38 93 -17 49 -49 133 -71 186 l-41 96 43 99 c23 55 55 139 71 187 15
48 31 87 35 87 4 0 42 -12 85 -26z m-1457 -624 c77 -127 101 -169 101 -174 0
-4 -10 -4 -22 -1 -13 3 -36 7 -53 9 -80 9 -177 31 -181 41 -5 11 32 120 71
210 l17 40 29 -55 c16 -30 33 -62 38 -70z m1170 78 c40 -94 73 -200 65 -207
-9 -8 -90 -25 -169 -36 -22 -3 -51 -8 -63 -11 -13 -3 -22 -1 -20 3 7 18 163
292 166 293 1 0 11 -19 21 -42z m-1214 -362 c23 -4 50 -8 60 -10 11 -2 47 -7
80 -10 102 -11 108 -14 145 -68 19 -28 39 -56 45 -62 6 -6 41 -49 79 -96 39
-47 74 -88 80 -92 11 -7 5 -13 -79 -83 -32 -28 -70 -59 -82 -70 -48 -40 -170
-106 -232 -125 -101 -32 -167 -23 -221 29 -83 79 -98 331 -35 591 2 8 4 18 4
22 1 3 27 0 59 -7 31 -7 75 -16 97 -19z m1334 -18 c6 -29 14 -64 16 -78 31
-151 22 -359 -18 -437 -73 -140 -224 -137 -442 10 -65 43 -170 130 -196 162
-17 20 -11 30 103 158 9 11 41 52 70 93 56 78 58 79 163 90 33 3 69 8 80 11
11 2 37 6 59 9 30 4 143 28 153 33 1 1 6 -23 12 -51z m-728 -30 c138 0 149 -1
137 -16 -43 -58 -151 -182 -157 -182 -9 0 -50 44 -106 115 -22 27 -46 56 -53
64 -11 11 -11 15 -1 22 7 4 17 5 22 2 5 -3 76 -5 158 -5z"/>
<path d="M2955 3465 c-198 -101 -198 -374 -1 -477 58 -31 175 -31 231 0 49 27
74 48 101 87 71 102 59 249 -28 337 -51 50 -102 72 -183 75 -59 3 -78 0 -120
-22z"/>
<path d="M2555 1562 c-186 -13 -350 -121 -438 -288 -20 -40 -37 -74 -37 -76 0
-3 37 -5 83 -4 64 0 93 -5 130 -22 l48 -21 31 35 c44 50 102 77 163 77 108 -1
217 -89 379 -305 l87 -117 -17 -28 c-83 -130 -241 -295 -319 -332 -58 -27
-113 -29 -193 -6 -44 13 -67 29 -113 75 l-57 58 -38 -13 c-46 -17 -132 -19
-168 -5 -16 6 -26 6 -26 0 0 -17 24 -65 62 -121 132 -199 395 -284 589 -192
109 52 195 138 316 314 34 50 63 91 66 92 3 1 36 -39 74 -88 159 -208 258
-296 388 -344 108 -41 257 -24 382 42 105 55 230 193 257 284 7 21 5 21 -31
11 -56 -15 -157 -3 -208 26 l-44 24 -30 -34 c-17 -18 -46 -41 -64 -50 -45 -24
-141 -23 -192 1 -76 37 -216 188 -344 373 l-24 34 59 85 c128 186 247 285 359
297 34 3 117 -15 155 -34 33 -17 102 -85 125 -123 9 -15 14 -16 55 -3 47 14
137 15 179 1 13 -4 21 -3 19 1 -3 5 -20 41 -39 79 -40 83 -147 195 -225 237
-106 57 -256 75 -353 43 -128 -42 -262 -166 -386 -358 -27 -42 -52 -77 -55
-76 -3 0 -23 25 -45 57 -94 132 -212 257 -300 316 -45 30 -165 82 -165 72 0
-3 -12 -2 -27 2 -16 4 -46 6 -68 4z"/>
<path d="M2143 1109 c-101 -18 -179 -100 -187 -196 -14 -177 167 -304 321
-224 122 62 162 211 88 323 -48 72 -138 112 -222 97z"/>
<path d="M4062 1108 c-122 -21 -205 -145 -177 -265 46 -200 309 -242 412 -66
95 163 -48 364 -235 331z"/>
</g>
</svg>
